# xmcd
#
# Track frame offsets:
#	150
#	14930
#	33907
#	55815
#	73857
#	92522
#	110537
#	131362
#	150985
#	165742
#	184737
#	206622
#	224622
#	243245
#	261259
#	282092
#	313127
#
# Disc length: 4187 seconds
#
# Revision: 0
# Processed by: cddbd v1.5.1PL0 Copyright (c) Steve Scherf et al.
# Submitted via: audiograbber 1.83.01
#
DISCID=f6105911
DTITLE=Various Artist - SC3306
DYEAR=1900
DGENRE=Karaoke
TTITLE0=Griggs, Andy - Tonight I Wanna Be Your Man
TTITLE1=Jackson, Alan - Drive (For Daddy Gene)
TTITLE2=Brooks, Garth - Why Ain't I Running
TTITLE3=Green, Pat - Three Days
TTITLE4=Lonestar - Not A Day Goes By
TTITLE5=Adkins, Trace - Help Me Understand
TTITLE6=Alabama - Woman He Loves, The
TTITLE7=Berry, John - How Much Do You Love Me (radio Version)
TTITLE8=Griggs, Andy/w vocals - Tonight I Wanna Be Your Man
TTITLE9=Jackson, Alan/w vocals - Drive (For Daddy Gene)
TTITLE10=Brooks, Garth/w vocals - Why Ain't I Running
TTITLE11=Green, Pat/w vocals - Three Days
TTITLE12=Lonestar/w vocals - Not A Day Goes By
TTITLE13=Adkins, Trace/w vocals - Help Me Understand
TTITLE14=Alabama/w vocals - Woman He Loves, The
TTITLE15=Berry, John/w vocals - How Much Do You Love Me (radio Version)
TTITLE16=n/a - Data Track
EXTD=
EXTT0=
EXTT1=
EXTT2=
EXTT3=
EXTT4=
EXTT5=
EXTT6=
EXTT7=
EXTT8=
EXTT9=
EXTT10=
EXTT11=
EXTT12=
EXTT13=
EXTT14=
EXTT15=
EXTT16=
PLAYORDER=
